<?xml version="1.0" encoding="UTF-8"?>
<svg width="32px" height="37px" viewBox="0 0 32 37" version="1.1" xmlns="http://www.w3.org/2000/svg" xmlns:xlink="http://www.w3.org/1999/xlink">
    <!-- Generator: Sketch 46.2 (44496) - http://www.bohemiancoding.com/sketch -->
    <title>heart</title>
    <desc>Created with Sketch.</desc>
    <defs></defs>
    <g id="Page-1" stroke="none" stroke-width="1" fill="none" fill-rule="evenodd">
        <g id="heart" fill-rule="nonzero" fill="#000000">
            <path d="M31.1603808,15.9568534 C31.6152326,14.3220973 31.8974759,12.5729183 31.9966027,10.7467613 C32.0661899,9.46456293 31.0583147,8.36591636 29.7485767,8.29757949 C29.7195514,8.29613931 29.6907466,8.29577926 29.6618683,8.29541921 C29.5739107,7.89526329 29.3767592,7.52455919 29.0831998,7.21859148 C28.6578141,6.77501392 28.0814971,6.52031687 27.4617523,6.50159444 C26.8414197,6.48251197 26.2509941,6.70026822 25.7978324,7.11684228 C25.670562,7.23392947 25.5590903,7.36289821 25.4632701,7.50094012 C25.2901472,7.44462881 25.1090148,7.41006433 24.9234735,7.40019905 C23.7884014,7.34093536 22.6980798,8.2953472 22.6373104,9.40184279 C22.6089465,9.91764572 22.5600811,10.4114858 22.4972543,10.8814908 C22.0940601,10.8315163 21.6802846,10.883003 21.2918602,11.0389032 C20.6098765,11.3126107 20.1013095,11.8687389 19.8966629,12.5647812 C19.4240286,14.1713097 18.7782713,15.553097 18.0781375,16.4555901 C16.9292509,17.9366063 16.229852,19.6508607 16.000736,21.5135984 C15.9071203,20.7454028 15.7335565,20.0008261 15.4815877,19.2918221 C15.3281579,18.8613503 15.1419552,18.4342629 14.9281234,18.0225134 C14.9270212,18.0204252 14.925772,18.0186249 14.9246698,18.0166807 C14.9201874,18.0082556 14.9153376,17.9999745 14.9104878,17.9917654 C14.7074578,17.6047152 14.4767987,17.225658 14.2224785,16.8637391 C14.1196776,16.7183522 14.0209917,16.5848469 13.9208361,16.4556621 C13.9207626,16.4555901 13.9207626,16.4555901 13.9206157,16.4555181 C13.2213637,15.5537451 12.5756064,14.1718138 12.1023841,12.5643492 C11.8975171,11.8685229 11.3887297,11.3125387 10.706599,11.0388312 C10.3187625,10.883363 9.9057218,10.8318043 9.50333594,10.8814188 C9.43771677,10.3886588 9.38907188,9.89366661 9.36203061,9.4019148 L9.36203061,9.40155475 C9.3005999,8.29505917 8.21182135,7.34100737 7.07432443,7.40005503 C6.88981185,7.40999232 6.70934076,7.4445568 6.5368057,7.5007961 C6.10260225,6.86819401 5.36080436,6.47358281 4.5389114,6.50137841 C3.76412021,6.52470944 3.05443383,6.92349719 2.63970304,7.56963703 C2.49582584,7.79495427 2.39559678,8.04029011 2.33908935,8.29541921 C2.30932925,8.29585127 2.27956916,8.29628333 2.2496621,8.29786753 C1.54974878,8.33430426 0.905240677,8.66936374 0.481398155,9.21713882 C0.143455756,9.65387549 -0.0263604832,10.197042 0.00332612893,10.7466173 C0.102526442,12.5752226 0.385210593,14.3259137 0.840650251,15.96139 C0.720287205,16.0576665 0.610064635,16.1657525 0.512113511,16.2843519 C0.506455419,16.2906887 0.500650364,16.2968815 0.495212717,16.3034344 C0.493008266,16.3060267 0.490656851,16.308331 0.4884524,16.3110673 C0.066079512,16.8383198 -0.0910978726,17.5154956 0.057114743,18.1684764 L1.13281354,22.9159084 C1.43776265,24.2589547 2.20902672,25.471304 3.30427165,26.3295834 L4.97561322,27.6418097 C5.3481655,27.9345276 5.74511372,28.1959936 6.15933014,28.422607 L6.15933014,34.2636449 C6.15933014,34.6352851 6.46670414,34.9364282 6.84586978,34.9364282 C7.22503542,34.9364282 7.53240943,34.6352851 7.53240943,34.2636449 L7.53240943,29.0248211 C7.83089215,29.1262103 8.134886,29.2121894 8.44292134,29.2808143 C8.49421157,29.2921918 8.54535485,29.2976645 8.5957633,29.2976645 C8.90908933,29.2976645 9.19221437,29.0859571 9.26466734,28.7738686 C9.34873042,28.4115175 9.11711606,28.0510388 8.74735608,27.9685881 C8.19506752,27.8455241 7.65747531,27.6586598 7.14934926,27.413036 C6.68516528,27.1888709 6.24273188,26.912571 5.83432052,26.5916974 L4.1623911,25.278967 C3.31022367,24.6112964 2.71039244,23.668262 2.47326696,22.6238385 L1.39771512,17.8764065 C1.33966457,17.6207733 1.40072787,17.3554909 1.56459209,17.1473839 C1.56466557,17.1471678 1.56488602,17.1470238 1.5649595,17.1469518 C1.56679654,17.1447915 1.56878055,17.1428473 1.57054411,17.140687 C1.6610001,17.0272003 1.78011395,16.9369006 1.91164622,16.8805172 C1.95771926,16.8610747 2.00687852,16.8448726 2.05655216,16.832559 C2.34856849,16.7606217 2.66365807,16.7766078 2.95104506,16.8828215 C3.34703801,17.0281364 3.66176019,17.3297835 3.82077461,17.7155376 C3.82613878,17.7305875 3.83223776,17.7454215 3.83877763,17.7601114 C3.86023429,17.8164227 3.8786782,17.8739582 3.89249277,17.9323577 L4.66691654,21.1851638 C4.74862821,21.5283604 5.08715846,21.7516613 5.44236906,21.6968622 C5.46353179,21.6936938 7.58325878,21.3797331 9.32345271,22.2583191 C9.42404917,22.3090857 9.53140596,22.3332088 9.63736659,22.3332088 C9.88624915,22.3332088 10.1264609,22.2002075 10.2482201,21.9684095 C10.4218574,21.6381026 10.2894433,21.232402 9.95238269,21.0622439 C8.44475838,20.3010331 6.76320286,20.2609239 5.86812211,20.308162 L5.26799696,17.7874029 C5.39534076,17.71849 5.55420823,17.6395677 5.74592202,17.5578371 C6.06409784,17.4220995 6.40990278,17.3055164 6.77481297,17.2107521 C7.1174582,17.1212445 7.48222142,17.0504593 7.85918261,17.0003408 C8.2317349,16.9507984 8.6198653,16.9219946 9.01358032,16.9147937 C9.41736234,16.9070887 9.83598766,16.9206985 10.2577727,16.955983 C10.2641656,16.9566311 10.2705585,16.9571352 10.2768779,16.9577113 C10.2791559,16.9579273 10.2815808,16.9581433 10.2839322,16.9583593 L10.3003921,16.9597995 C10.4384642,16.9716091 10.5688208,16.9827705 10.6977812,17.0002688 C11.0733462,17.0513234 11.4201064,16.7943941 11.472205,16.4264263 C11.524377,16.0583866 11.2621942,15.7185745 10.8866292,15.6675198 C10.8516519,15.6627672 10.8185851,15.6597428 10.7844896,15.6557103 C10.5463354,15.1082953 10.0684838,13.8860087 9.72657339,12.2129436 C9.88147284,12.2018541 10.0384298,12.2249691 10.1868628,12.2844488 C10.4782178,12.40132 10.6956502,12.6393829 10.7835344,12.9375736 C11.1507225,14.1848474 11.8034605,15.9487883 12.8277956,17.2698718 C12.8278691,17.2700878 12.8279426,17.2701598 12.8280895,17.2703038 C12.9159002,17.3834305 13.0028291,17.5010938 13.0929176,17.6284783 C13.3187269,17.950072 13.5243288,18.2881559 13.704065,18.6335127 C13.7054612,18.6361771 13.7073717,18.6384093 13.7087679,18.6411457 C13.89306,18.9967278 14.0534706,19.3649116 14.1855172,19.7351117 C14.47577,20.5519857 14.6474233,21.4263951 14.6956273,22.3343609 C14.8590506,25.3967743 13.5705488,27.9232942 13.5579834,27.9475613 C13.5084567,28.0423976 13.4827381,28.1473153 13.4827381,28.2538171 L13.4827381,36.3272167 C13.4827381,36.6988569 13.7901121,37 14.1692778,37 C14.5484434,37 14.8558174,36.6988569 14.8558174,36.3272167 L14.8558174,28.407197 C15.0856682,27.9235822 15.7633166,26.3596113 16.0000747,24.3029524 C16.0113174,24.400309 16.0236623,24.4978817 16.0372564,24.5957424 C16.3024519,26.5080945 16.9267525,27.9478494 17.1443319,28.4068369 L17.1443319,36.3269287 C17.1443319,36.6985689 17.4517059,36.999712 17.8308715,36.999712 C18.2100372,36.999712 18.5174112,36.6985689 18.5174112,36.3269287 L18.5174112,28.253601 C18.5174112,28.1470992 18.4916191,28.0422536 18.4421659,27.9473453 C18.4117445,27.8892338 15.448227,22.0696546 19.1715454,17.2700878 C20.1971297,15.9479242 20.8496473,14.1843434 21.216321,12.9375736 C21.3039847,12.6392389 21.5214171,12.401176 21.8126251,12.2842328 C21.9609847,12.2247531 22.1181621,12.2013501 22.2729146,12.2122955 C21.9299019,13.888457 21.4517564,15.1114637 21.2145575,15.6566464 C21.1846504,15.6599589 21.1549638,15.6622632 21.1251302,15.6657916 C20.7487569,15.7103654 20.4804017,16.0454969 20.5258869,16.4144728 C20.571372,16.7832326 20.913209,17.0453466 21.2898027,17.001781 C21.4323573,16.9849308 21.5758671,16.9700969 21.7163641,16.9582153 C24.3574438,16.7310979 26.0340026,17.4150426 26.7317115,17.7894192 L26.1370974,20.2868473 C25.1468579,20.2061968 23.2644033,20.2436416 21.9060939,21.4267552 C21.6226749,21.6736032 21.5971768,22.0988184 21.8490721,22.3765584 C22.1008939,22.6540824 22.5348034,22.6794297 22.8182959,22.4324377 C24.1821165,21.2444275 26.5036977,21.687069 26.5254483,21.6913895 C26.890432,21.7651271 27.2485084,21.54089 27.3330858,21.1853799 L28.1075096,17.9329338 C28.2002435,17.5436513 28.4430271,17.2144966 28.79111,17.0061735 C29.1393398,16.7977065 29.5490738,16.7362825 29.9446994,16.8332791 C30.4200526,16.9497182 30.7091296,17.4081297 30.6028751,17.8768385 L29.526368,22.6238385 C29.2895364,23.66819 28.6896317,24.6112964 27.8367295,25.2799752 L26.1656818,26.5925615 C25.3187316,27.2577838 24.3116647,27.7336216 23.2530872,27.968516 C22.8832537,28.0506067 22.6514189,28.4109415 22.735188,28.7733645 C22.8074206,29.085597 23.0905456,29.2976645 23.4041656,29.2976645 C23.4543536,29.2976645 23.5054234,29.2921918 23.5564932,29.2808143 C23.8645285,29.2124775 24.1688898,29.1267143 24.4677399,29.0249651 L24.4677399,34.263861 C24.4677399,34.6355012 24.7751139,34.9366443 25.1542795,34.9366443 C25.5334452,34.9366443 25.8408192,34.6355012 25.8408192,34.263861 L25.8408192,28.4215268 C26.2567992,28.1943374 26.6536739,27.9338075 27.0245361,27.6425297 L28.6951428,26.3303035 C29.7911961,25.471016 30.5625336,24.2583066 30.8669684,22.9156924 L31.9434755,18.1686924 C32.1370263,17.3125733 31.8097387,16.47028 31.1603808,15.9568534 Z M3.4342608,15.6234501 C3.01651726,15.4689901 2.56526606,15.414407 2.12305311,15.4594848 C1.71743405,13.9588821 1.46583267,12.3529297 1.37478882,10.6755441 C1.36222345,10.4433139 1.43364768,10.2141082 1.57583479,10.0304124 C1.75505669,9.79890231 2.02737992,9.65725993 2.32299685,9.64184993 L2.32307033,9.64184993 C2.46400826,9.63428895 2.60053728,9.65509965 2.7306734,9.70356194 C3.10271131,9.8411718 3.35673759,10.181704 3.37775336,10.5712025 C3.51119616,13.0270092 3.99786554,14.9434659 4.48137522,16.292921 C4.1892854,16.000419 3.8332665,15.7698451 3.4342608,15.6234501 Z M6.42224771,15.9103353 C6.23104829,15.9599498 6.04425777,16.015829 5.86150875,16.0759568 C5.38615555,14.8166574 4.88214448,12.9526956 4.74884865,10.4996972 C4.70799282,9.74431923 4.29656871,9.06692733 3.66550775,8.66741949 C3.68196766,8.53211393 3.72870203,8.40170501 3.80321248,8.28490585 C3.97332265,8.01998347 4.26416327,7.85609021 4.58285346,7.84644095 C5.04248158,7.83023885 5.45464051,8.15269669 5.54480257,8.59821851 C5.5555309,8.64891308 5.56148292,8.69831149 5.56302603,8.75030224 C5.65722959,11.7214798 6.26161668,14.1366012 6.84403274,15.8115385 C6.70111081,15.8421425 6.55973199,15.8744747 6.42224771,15.9103353 Z M8.98705343,15.5694431 C8.73082269,15.5741957 8.47657596,15.5879495 8.22541547,15.6087602 C7.65806316,14.0405407 7.04052284,11.7031174 6.93838326,8.78904327 C7.00539858,8.76347995 7.07616147,8.74756589 7.14861444,8.74367738 C7.53049891,8.72466691 7.97043392,9.10617242 7.99115577,9.47428419 C8.03428953,10.259258 8.12489248,11.0520809 8.25921706,11.8315101 C8.2618624,11.8575054 8.26641826,11.8829967 8.27214984,11.908128 C8.54454655,13.4597133 8.9509739,14.7316864 9.26944365,15.5678589 C9.17494617,15.5676429 9.08044868,15.5677149 8.98705343,15.5694431 Z M23.7748073,15.6086162 C23.4450949,15.5811806 23.0964976,15.5659147 22.7279134,15.5669228 C23.1957714,14.3563017 23.858356,12.208479 24.0086261,9.47428419 C24.0288336,9.10631644 24.4700178,8.72329874 24.8503592,8.7438214 C24.9234,8.7477099 24.9943833,8.76347995 25.0612517,8.78882724 C24.9591856,11.7026133 24.3420127,14.0401807 23.7748073,15.6086162 Z M27.2507863,10.4993372 C27.1175639,12.9531276 26.6137733,14.8170895 26.1385671,16.0761729 C25.8460364,15.9798244 25.5193367,15.8885165 25.1565575,15.8106744 C25.7386796,14.135377 26.3427728,11.7203996 26.4367559,8.75037425 C26.4446184,8.50078986 26.5514608,8.26920781 26.7375165,8.0980416 C26.9227639,7.92766749 27.1639309,7.83787184 27.4183246,7.84636894 C27.6726448,7.85407394 27.9085946,7.95841548 28.0828932,8.13995104 C28.2245659,8.28778622 28.3105396,8.4725622 28.3339067,8.67044388 C27.7171012,9.06282279 27.2926709,9.72761306 27.2507863,10.4993372 Z M30.6255074,10.675256 C30.5343901,12.3519216 30.2827887,13.95773 29.8770962,15.4587647 C29.2504441,15.3933803 28.6228368,15.529982 28.0751041,15.8577685 C27.8701636,15.9804004 27.6844754,16.1252112 27.5203907,16.2882404 C28.003239,14.9391453 28.4888062,13.0243449 28.6219551,10.5708425 C28.6513477,10.0305564 29.1251578,9.61470241 29.6770055,9.64134587 C30.2293675,9.6701496 30.6548267,10.1338898 30.6255074,10.675256 Z" id="Shape"></path>
            <path d="M21.2186316,1.42631131 C20.413714,0.528852598 19.3214324,0.0226579421 18.1427142,0.000965986291 C17.1748671,-0.0195494566 16.2523333,0.293917687 15.49209,0.88592425 C14.7319177,0.293917687 13.809668,-0.0197700528 12.8414657,0.000965986291 C11.6628897,0.02258441 10.570466,0.528852598 9.76554839,1.42631131 C8.99848671,2.28170969 8.59791005,3.40601479 8.6376126,4.59223387 C8.67710207,5.76124646 9.13804932,6.86150657 9.93593552,7.69006575 L13.0917551,10.9675364 C13.7328908,11.6333692 14.5853236,12 15.492232,12 C16.3991404,12 17.2515732,11.6332956 17.892709,10.9675364 L21.0485286,7.69006575 C21.8464148,6.86143304 22.307362,5.76124646 22.3464964,4.59223387 C22.386341,3.40608832 21.9856933,2.28163616 21.2186316,1.42631131 Z M20.108878,6.7200309 L16.9530584,9.99750159 C16.5627803,10.4028103 16.0441613,10.62598 15.4924451,10.62598 C14.9407289,10.62598 14.42211,10.4027367 14.0318318,9.99750159 L10.8760122,6.7200309 C9.72059005,5.52020839 9.65879897,3.56491755 10.7383673,2.36127137 C11.2954103,1.74014611 12.050753,1.38983941 12.8652588,1.37469181 C12.8835121,1.37439768 12.9016233,1.37425062 12.9197344,1.37425062 C13.7140694,1.37425062 14.4589715,1.69448271 15.0223357,2.27957726 C15.1468412,2.40892014 15.3158789,2.48156981 15.4923031,2.48156981 C15.6687272,2.48156981 15.8376939,2.40892014 15.9622704,2.27957726 C16.53849,1.68117341 17.3048414,1.36336787 18.1193473,1.37476534 C18.9338531,1.38976588 19.6891958,1.74007258 20.2462389,2.3613449 C21.3258782,3.56491755 21.2640871,5.52020839 20.108878,6.7200309 Z" id="Shape"></path>
            <circle id="Oval" cx="13.2063492" cy="5.5" r="1"></circle>
            <circle id="Oval" cx="18.7936508" cy="5.5" r="1"></circle>
        </g>
    </g>
</svg>