<?xml version="1.0" encoding="UTF-8"?>
<svg width="32px" height="28px" viewBox="0 0 32 28" version="1.1" xmlns="http://www.w3.org/2000/svg" xmlns:xlink="http://www.w3.org/1999/xlink">
    <!-- Generator: Sketch 46.2 (44496) - http://www.bohemiancoding.com/sketch -->
    <title>Sponsor a child</title>
    <desc>Created with Sketch.</desc>
    <defs></defs>
    <g id="Page-1" stroke="none" stroke-width="1" fill="none" fill-rule="evenodd">
        <g id="Sponsor-a-child" fill-rule="nonzero" fill="#000000">
            <path d="M23.552,0.0575483871 C20.3114582,0.0575483871 17.4096574,1.9283871 16,4.77135484 C14.5904064,1.9283871 11.6885418,0.0575483871 8.448,0.0575483871 C3.78976892,0.0575483871 0,3.89316129 0,8.60780645 C0,12.6278065 3.67082072,16.1987097 6.62036653,19.068 L15.5690837,27.7727742 C15.6909641,27.8859355 15.8454821,27.9424516 16,27.9424516 C16.1550279,27.9424516 16.3099283,27.8855484 16.4319363,27.7717419 L25.3795697,19.068 C28.3291793,16.1987097 32,12.6277419 32,8.60780645 C32,3.89316129 28.2102311,0.0575483871 23.552,0.0575483871 Z M2.69462948,4.45625806 L4.16019124,2.97296774 C4.63254183,2.49483871 5.30677291,2.28232258 5.96398406,2.40516129 L6.36844622,2.48058065 L10.3831713,3.76529032 C10.3960478,3.76941935 10.4090518,3.77316129 10.4221833,3.7763871 C10.8643187,3.88716129 10.8643187,4.03058065 10.8643187,4.16929032 C10.8643187,4.20283871 10.8584542,4.26412903 10.8193147,4.29819355 C10.771506,4.33974194 10.6465657,4.37258065 10.4390757,4.34116129 L8.91085259,4.08651613 C8.69239841,4.05012903 8.47062948,4.13116129 8.32548207,4.30070968 C8.18033466,4.47025806 8.13265339,4.70380645 8.19952191,4.91767742 L8.20353785,4.93064516 C8.23432669,5.02935484 8.28819124,5.11909677 8.36054183,5.19232258 L12.0437928,8.92012903 C12.1339283,9.01135484 12.1339283,9.15987097 12.0438566,9.25103226 C11.9535299,9.3423871 11.8069163,9.34225806 11.7167171,9.25103226 C11.7164622,9.25077419 11.7162072,9.25058065 11.7159522,9.25032258 C11.7156972,9.25006452 11.715506,9.24974194 11.715251,9.24948387 L9.11853386,6.63903226 C8.86878088,6.38793548 8.46508367,6.38929032 8.21705179,6.64206452 C7.96889243,6.89483871 7.97029482,7.30335484 8.22011155,7.55445161 L10.8148526,10.1629032 C10.8150438,10.1630968 10.8151713,10.1632258 10.8152988,10.1634194 L11.8122709,11.1723871 C11.8711713,11.232 11.8800319,11.3016774 11.8800319,11.3378065 C11.8800319,11.374 11.8711713,11.4436774 11.8122709,11.5032903 C11.7533705,11.5629032 11.6845896,11.5718065 11.6488287,11.5718065 C11.6130677,11.5718065 11.5442231,11.5629032 11.4853865,11.5032258 L10.8711394,10.8815484 L7.70925896,7.68141935 C7.46027092,7.42948387 7.05676494,7.42948387 6.80771315,7.68141935 C6.55878884,7.93335484 6.55878884,8.34187097 6.80771315,8.59387097 L9.96959363,11.794 L9.97029482,11.7946452 C10.0597291,11.8859355 10.0595378,12.033871 9.96965737,12.1249032 C9.87945817,12.2160645 9.73278088,12.2161935 9.64258167,12.1249032 L7.60854183,10.0662581 L6.15840637,8.59877419 C5.90948207,8.34683871 5.5059761,8.34683871 5.25686056,8.59877419 C5.00793625,8.85070968 5.00793625,9.25922581 5.25686056,9.51116129 L6.7065498,10.9784516 C6.70667729,10.9785806 6.70674104,10.9786452 6.70686853,10.9787742 L6.70763347,10.9795484 C6.76589641,11.0390323 6.77469323,11.1081935 6.77469323,11.1442581 C6.77469323,11.1804516 6.76583267,11.2500645 6.70693227,11.3097419 C6.64796813,11.3693548 6.57918725,11.3782581 6.54349004,11.3782581 C6.50779283,11.3782581 6.43894821,11.3693548 6.38004781,11.3096774 L2.99665339,7.88535484 C2.98479681,7.87335484 2.97249402,7.86187097 2.95974502,7.85090323 C2.95043825,7.84283871 2.02792032,7.0183871 1.98846215,6.00541935 C1.96742629,5.46516129 2.19843825,4.95845161 2.69462948,4.45625806 Z M24.6639681,17.9185161 L23.1983426,19.401871 C22.7228048,19.8831613 22.243251,20.117871 21.734247,20.117871 C21.7142948,20.117871 21.6942151,20.1174839 21.6742629,20.1167742 C20.6670279,20.0805161 19.8509004,19.1410968 19.8442709,19.1334194 C19.8334343,19.1205161 19.8220239,19.1080645 19.8102311,19.096129 L16.4268367,15.6718065 C16.3679363,15.6121935 16.3591394,15.5425161 16.3591394,15.5063226 C16.3591394,15.470129 16.3679363,15.4005161 16.4269004,15.3408387 C16.485992,15.2812903 16.5547729,15.2723871 16.5905976,15.2723871 C16.6264223,15.2723871 16.6952032,15.2812903 16.7540398,15.3409032 C16.7541673,15.3410323 16.7542311,15.3410968 16.7543586,15.3412258 L18.2040478,16.8084516 C18.3285418,16.9344516 18.4916653,16.9974194 18.6547888,16.9974194 C18.8179124,16.9974194 18.9810359,16.9343871 19.1055299,16.8084516 C19.3544542,16.5565161 19.3544542,16.148 19.1055299,15.8960645 L17.6555219,14.4284516 L15.6214821,12.3698065 C15.5313466,12.2785161 15.5313466,12.1300645 15.6214183,12.0388387 C15.7115538,11.9477419 15.8581036,11.9475484 15.9484303,12.0387097 L15.948494,12.0387742 L19.1103108,15.2389032 C19.2348048,15.3649032 19.3979283,15.427871 19.5610518,15.427871 C19.7241753,15.427871 19.8872988,15.3648387 20.0117928,15.2389032 C20.2607171,14.9869677 20.2607171,14.5784516 20.0117928,14.3265161 L16.8499761,11.1263871 C16.8498486,11.1262581 16.8497849,11.1261935 16.8496574,11.1260645 L16.2356653,10.5047097 C16.1455299,10.4134194 16.1455299,10.2649677 16.2356016,10.1737419 C16.3258008,10.0825806 16.4724781,10.0824516 16.5626773,10.1737419 L17.5576733,11.1807742 C17.5579283,11.1810323 17.558247,11.1813548 17.558502,11.1816129 L20.073498,13.7447097 C20.1981195,13.8717419 20.3618805,13.9352903 20.5258327,13.9352903 C20.688255,13.9352903 20.8506773,13.8728387 20.9750438,13.7479355 C21.2247968,13.4968387 21.2261992,13.0883226 20.9781673,12.8355484 L18.4626614,10.271871 C18.4624701,10.2716774 18.4622151,10.2714839 18.4619602,10.2712258 C18.4616414,10.2709032 18.4613865,10.2705806 18.4610677,10.2702581 L18.4603028,10.2694839 C18.4020398,10.21 18.393243,10.1408387 18.393243,10.1047742 C18.393243,10.0685161 18.4021036,9.99890323 18.461004,9.93929032 C18.5199044,9.87967742 18.5886853,9.87077419 18.6244462,9.87077419 C18.6602072,9.87077419 18.7290518,9.87967742 18.7878884,9.93935484 L22.4712032,13.6672258 C22.5438088,13.7406452 22.6327331,13.7952258 22.7306454,13.8264516 L22.7433944,13.8305161 C22.9545817,13.8977419 23.1852112,13.8492903 23.3524143,13.7024516 C23.5196813,13.5556129 23.5996813,13.3314194 23.5636653,13.1103226 L23.3120637,11.5634839 C23.2809562,11.3535484 23.3134661,11.2271613 23.3545179,11.1788387 C23.3881116,11.1392258 23.4487968,11.1332903 23.4818805,11.1332903 C23.6188685,11.1332903 23.7606375,11.1332903 23.8700876,11.5807742 C23.8733386,11.5940645 23.8769721,11.6072258 23.8810518,11.6202581 L25.1504064,15.6833548 L25.2250518,16.0929032 C25.3461036,16.7579355 25.1363825,17.4403871 24.6639681,17.9185161 Z M26.5155697,16.127871 C26.5065817,16.0381935 26.4952988,15.9485161 26.4789801,15.8590323 L26.4053546,15.4547742 C26.4006375,15.4165161 26.3924143,15.3781935 26.380494,15.3401935 L25.1025976,11.249871 C24.7944542,10.0265161 23.9561434,9.84309677 23.4820717,9.84309677 C23.0535777,9.84309677 22.6547251,10.0235484 22.3876335,10.3381935 C22.2138008,10.5429677 22.0279203,10.8807742 22.0246693,11.3905161 L19.6895618,9.02722581 C19.4051315,8.73929032 19.0268685,8.58077419 18.6245737,8.58077419 C18.2222789,8.58077419 17.8440159,8.73935484 17.5596494,9.02722581 C17.5038725,9.08367742 17.453004,9.14374194 17.4072351,9.20690323 C16.8166375,8.66787097 15.9027251,8.68619355 15.3341833,9.26167742 C14.8964462,9.70477419 14.7850199,10.3549032 14.9999681,10.9034194 C14.9002709,10.9650323 14.8061195,11.0394839 14.7199363,11.1266452 C14.1327809,11.7209677 14.1327809,12.688 14.7199363,13.2823871 L15.7013546,14.2756774 C15.6395219,14.3216129 15.580749,14.3726452 15.5255458,14.4285806 C15.240988,14.7164516 15.0843665,15.0992903 15.0843665,15.5064516 C15.0843665,15.9136774 15.240988,16.2964516 15.5254821,16.5843871 L18.8944701,19.994129 C19.043251,20.1631613 19.9618805,21.1519355 21.2440478,21.3667097 C18.9935299,23.588129 16.8801912,25.5892903 15.9991713,26.4183871 C14.906008,25.3927097 11.9026614,22.5522581 8.89867729,19.5119355 C8.46062151,19.0685806 7.99579283,18.6164516 7.50374502,18.1378065 C4.72873307,15.4380645 1.2749004,12.0782581 1.2749004,8.60780645 C1.2749004,8.35270968 1.28815936,8.10070968 1.31359363,7.85232258 C1.64691633,8.37896774 2.01300398,8.72541935 2.10938645,8.81232258 L5.47843825,12.2220645 C5.76286853,12.51 6.14113147,12.6685806 6.54342629,12.6685806 C6.94572112,12.6685806 7.32398406,12.51 7.6083506,12.222129 C7.66361753,12.1661935 7.71410359,12.1067097 7.75949004,12.044129 L8.74097211,13.0374839 C9.03451793,13.3346452 9.42023904,13.4832258 9.80589641,13.4832258 C10.1916175,13.4832258 10.5773386,13.3346452 10.8709482,13.0374839 C10.9569402,12.9505161 11.0303108,12.8554839 11.0910598,12.7548387 C11.2661036,12.8253548 11.4545976,12.8622581 11.6486375,12.8622581 C12.050996,12.8622581 12.4291952,12.7036774 12.7135618,12.4158065 C12.9981195,12.1279355 13.1548048,11.7450968 13.1548048,11.337871 C13.1548048,10.9572258 13.0178805,10.597871 12.7676175,10.3174839 C12.8297689,10.2715484 12.8891793,10.2202581 12.9452749,10.1634839 C13.5324303,9.56916129 13.5324303,8.60212903 12.9452749,8.00780645 L10.6101036,5.6443871 C11.1136892,5.64103226 11.4475857,5.45290323 11.6499124,5.27703226 C11.9607968,5.00677419 12.1390916,4.60303226 12.1390916,4.16935484 C12.1390916,3.68954839 11.9578645,2.84116129 10.7491952,2.52922581 L7.33246215,1.43587097 C7.69606375,1.37812903 8.06858964,1.34793548 8.448,1.34793548 C11.7025657,1.34793548 14.5545817,3.56993548 15.3836494,6.75141935 C15.4574024,7.03470968 15.7105339,7.23206452 16,7.23206452 C16.2894661,7.23206452 16.5425976,7.03470968 16.6163506,6.75141935 C17.4454183,3.56993548 20.2974343,1.34793548 23.552,1.34793548 C27.507251,1.34787097 30.7250996,4.60470968 30.7250996,8.60780645 C30.7250996,11.2610323 28.7064223,13.8495484 26.5155697,16.127871 Z" id="Shape"></path>
            <path d="M29.2589641,7.87096774 C28.9069641,7.87096774 28.6215139,8.15980645 28.6215139,8.51612903 C28.6215139,9.10670968 28.5239841,9.6856129 28.3314741,10.2366452 C28.2141833,10.5726452 28.3882072,10.9411613 28.7201275,11.0599355 C28.7903745,11.0850968 28.8620239,11.0970323 28.9325259,11.0970323 C29.1950916,11.0970323 29.4410837,10.9315484 29.5335777,10.6667097 C29.7743426,9.97716129 29.8964143,9.2536129 29.8964143,8.51612903 C29.8964143,8.15980645 29.6109641,7.87096774 29.2589641,7.87096774 Z" id="Shape"></path>
            <path d="M28.9325259,7.226 C29.0029641,7.226 29.0746773,7.21406452 29.1449243,7.18896774 C29.4768446,7.07019355 29.6508685,6.7016129 29.5335777,6.36567742 C28.6351554,3.79303226 26.2192191,2.06451613 23.5219124,2.06451613 C22.0873307,2.06451613 20.7324303,2.53554839 19.603761,3.42677419 C19.3262151,3.64593548 19.276749,4.05135484 19.4932908,4.33225806 C19.7098964,4.61322581 20.1104701,4.66322581 20.3880159,4.44406452 C21.2905179,3.73148387 22.3741833,3.35483871 23.5219124,3.35483871 C25.6799363,3.35483871 27.6128127,4.7376129 28.3314741,6.79567742 C28.4239681,7.06051613 28.6699602,7.226 28.9325259,7.226 Z" id="Shape"></path>
            <path d="M9.62473307,16.732129 C9.37287649,16.4830323 8.96930677,16.487871 8.72331474,16.7427097 C8.47725896,16.9975484 8.4819761,17.4060645 8.73376892,17.6550323 L9.7536255,18.6635484 C9.87760956,18.7861935 10.0383745,18.8472903 10.199012,18.8472903 C10.3646853,18.8472903 10.5301036,18.7823871 10.6549801,18.6530323 C10.9010359,18.3981935 10.8963187,17.9896774 10.6445259,17.7407097 L9.62473307,16.732129 Z" id="Shape"></path>
            <path d="M11.3369243,19.3271613 C11.0908685,19.5820645 11.0955857,19.9905161 11.3473785,20.2395484 L15.6820398,24.526 C15.8060239,24.6485806 15.9667888,24.7096774 16.1274263,24.7096774 C16.2930996,24.7096774 16.4585179,24.6447742 16.5833944,24.5154194 C16.8294502,24.2605161 16.8247331,23.8520645 16.5729402,23.6030323 L12.2382789,19.3165806 C11.9864223,19.0675484 11.5828526,19.0723226 11.3369243,19.3271613 Z" id="Shape"></path>
        </g>
    </g>
</svg>