<?xml version="1.0" encoding="UTF-8"?>
<svg width="29px" height="38px" viewBox="0 0 29 38" version="1.1" xmlns="http://www.w3.org/2000/svg" xmlns:xlink="http://www.w3.org/1999/xlink">
    <!-- Generator: Sketch 46.2 (44496) - http://www.bohemiancoding.com/sketch -->
    <title>Become a volunteer</title>
    <desc>Created with Sketch.</desc>
    <defs></defs>
    <g id="Page-1" stroke="none" stroke-width="1" fill="none" fill-rule="evenodd">
        <g id="Become-a-volunteer" transform="translate(0.666667, 0.000000)" fill-rule="nonzero" fill="#000000">
            <path d="M14.0049583,32.064207 C13.7425312,32.064207 13.4865208,31.9885039 13.2644896,31.8452617 C12.7031771,31.4827773 7.73930208,28.2280625 6.17407292,25.5350352 C5.44680208,24.2839297 5.12254167,23.0751289 5.12254167,21.6159883 C5.12254167,19.91675 5.6940625,18.4685195 6.77548958,17.42775 C7.76511458,16.4752266 9.11502083,15.9506484 10.5764896,15.9506484 C12.2357812,15.9506484 13.3231146,16.5926406 14.0038646,17.2568242 C14.6833021,16.5925664 15.7690312,15.9506484 17.4268646,15.9506484 C18.8883333,15.9506484 20.2376562,16.4753008 21.2265521,17.4280469 C22.3065937,18.4685937 22.8773854,19.91675 22.8773854,21.6159883 C22.8773854,23.0731992 22.5526875,24.2818516 21.8241042,25.5350352 C20.2701042,28.2089141 15.3091458,31.4790664 14.7485625,31.8431836 C14.525875,31.9877617 14.2687708,32.064207 14.0049583,32.064207 Z M10.5764896,18.1379492 C8.93148958,18.1379492 7.27161458,19.2133047 7.27161458,21.6158398 C7.27161458,22.6892656 7.48941667,23.5021094 8.02367708,24.4210859 C9.011625,26.1209922 12.1591458,28.4917617 14.0037187,29.7269102 C15.8478542,28.4859727 18.9938437,26.1085234 19.9745729,24.4210859 C20.5099271,23.499957 20.7283854,22.6871875 20.7283854,21.6158398 C20.7283854,19.2133047 19.0701146,18.1379492 17.4268646,18.1379492 C16.022125,18.1379492 15.3640521,18.8299648 15.0594062,19.4104297 C14.8508646,19.8072031 14.4468333,20.0533125 14.0048125,20.0533125 C13.5635208,20.0533125 13.1597083,19.8076484 12.9512396,19.4123594 C12.6449896,18.8308555 11.9844375,18.1379492 10.5764896,18.1379492 Z" id="Shape"></path>
            <path d="M18.6530312,9.07702734 C18.2760521,9.07702734 17.9103021,8.87470703 17.7136458,8.51585937 C17.4246042,7.98823828 17.6103958,7.32205078 18.1286146,7.02792187 L21.6789271,5.01251172 C22.1971458,4.71838281 22.8517187,4.90741797 23.1407604,5.43489062 C23.4298021,5.96236328 23.2440104,6.62869922 22.7257917,6.92282812 L19.1754792,8.93823828 C19.0097396,9.03242187 18.8302187,9.07702734 18.6530312,9.07702734 Z" id="Shape"></path>
            <path d="M22.4905625,10.4563086 C22.3934375,10.4563086 22.2947083,10.4427266 22.1965625,10.4144492 L18.2858229,9.28432031 C17.7148854,9.11940625 17.383625,8.51452344 17.5455729,7.93346484 C17.7078125,7.35248047 18.3019375,7.01515625 18.872875,7.18007031 L22.7836146,8.31019922 C23.3545521,8.47511328 23.6858125,9.07999609 23.5238646,9.66105469 C23.3894062,10.1422148 22.9588333,10.4563086 22.4905625,10.4563086 Z" id="Shape"></path>
            <path d="M14,38 C6.29475,38 0.02603125,31.6193398 0.02603125,23.7764961 C0.02603125,20.4586211 1.24308333,17.1113555 3.64335417,13.8276211 C5.2434375,11.6386133 7.15392708,9.78989844 8.7758125,8.4158125 L7.3959375,4.12329687 C7.0844375,3.154 7.24303125,2.12473437 7.83110417,1.299125 C8.41910417,0.473441406 9.33085417,0 10.3326562,0 L17.6672708,0 C18.6690729,0 19.5809687,0.473441406 20.1688229,1.29905078 C20.7568958,2.12458594 20.9155625,3.15392578 20.6039896,4.12322266 L19.186125,8.53396875 C19.0016458,9.10819922 18.3941771,9.42117969 17.8308229,9.23340625 C17.2668125,9.04548437 16.9591771,8.42783594 17.1436562,7.85375391 L18.5615208,3.44300781 C18.6563125,3.14791406 18.6080417,2.8345625 18.4290312,2.58310937 C18.249875,2.33180469 17.9723542,2.18759766 17.6672708,2.18759766 L10.3326562,2.18759766 C10.0275729,2.18759766 9.75005208,2.33173047 9.57089583,2.58310937 C9.39188542,2.8345625 9.34361458,3.14798828 9.43840625,3.44308203 L10.6140417,7.10021094 L10.7758437,7.10021094 C11.2371146,7.10021094 11.6469792,7.39990625 11.7942708,7.84492187 C11.9414896,8.28986328 11.7931771,8.78096875 11.4258229,9.06485547 C7.97103125,11.7359141 2.17510417,17.1990078 2.17510417,23.7764961 C2.17510417,30.4132109 7.47971875,35.8124766 14,35.8124766 C20.5202812,35.8124766 25.8248229,30.4131367 25.8248229,23.7764961 C25.8248229,20.9891367 24.8205417,18.1545742 22.840125,15.3516289 C22.4935521,14.8611914 22.6032917,14.1778594 23.0849792,13.8250977 C23.5668125,13.4722617 24.238375,13.5841836 24.5847292,14.0743242 C26.833625,17.2569727 27.9738229,20.5212617 27.9738229,23.7764219 C27.9739687,31.6193398 21.70525,38 14,38 Z" id="Shape"></path>
            <path d="M18.0212083,9.28758594 L10.7759896,9.28758594 C10.1825938,9.28758594 9.70141667,8.79789062 9.70141667,8.19382422 C9.70141667,7.58975781 10.1825938,7.1000625 10.7759896,7.1000625 L18.0212083,7.1000625 C18.6146042,7.1000625 19.0957812,7.58975781 19.0957812,8.19382422 C19.0957812,8.79789062 18.6146771,9.28758594 18.0212083,9.28758594 Z" id="Shape"></path>
        </g>
    </g>
</svg>